<?xml version="1.0" encoding="utf-8"?>
<svg xmlns="http://www.w3.org/2000/svg" viewBox="2.2807 1.8747 140.2437 140.378" width="140.244px" height="140.378px">
  <defs>
    <style type="text/css">
	.st0{fill:#FFFFFF;}
	.st1{fill:none;}
	.st2{fill:#00A8FF;}
	.st3{fill:#095EF1;}
</style>
  </defs>
  <g transform="matrix(1.3830339908599854, 0, 0, 1.3830339908599854, -137.682373046875, -108.07647705078125)" style="">
    <g>
      <rect x="142.7" y="121" class="st1" width="18.6" height="18.6"/>
      <path class="st1" d="M117.5,130.1c0,4.5,1.1,9,9,9.4V121C118.6,121.4,117.5,125.6,117.5,130.1z"/>
      <path class="st1" d="M151.8,164.8c4.5,0,9-1.1,9.4-9h-18.5C143.1,163.7,147.3,164.8,151.8,164.8z"/>
      <path class="st1" d="M186.5,130.1c0-4.4-1.1-8.8-9-9.1v18.5C185.4,139.3,186.5,134.6,186.5,130.1z"/>
      <path class="st1" d="M151.8,95.8c-4.4,0-8.8,1.1-9.1,9l18.5,0C161,96.9,156.4,95.8,151.8,95.8z"/>
      <path class="st2" d="M177.5,104.8c-0.3-15.4-10.3-25.3-25.7-25.3c-15.2,0-25.1,9.9-25.4,25.3c0.4,0,0.7,0,1.1,0h15.2 c0.3-7.9,4.7-9,9.1-9c4.5,0,9.1,1.1,9.4,9c0,0.3,0,0.5,0,0.8l0,15.5v18.6l15.5,0c0.3,0,0.5,0,0.8,0V121v-15.5 C177.5,105.3,177.5,105,177.5,104.8z"/>
      <path class="st3" d="M177.5,104.8c0,0.2,0,0.5,0,0.7V121c7.9,0.3,9,4.7,9,9.1c0,4.5-1.1,9.1-9,9.4c-0.3,0-0.5,0-0.8,0h-15.5h-18.6 v15.2c0,0.4,0,0.7,0,1.1h18.5h15.5c0.2,0,0.5,0,0.7,0c15.4-0.3,25.3-10.3,25.3-25.7C202.8,114.9,192.9,105.1,177.5,104.8z"/>
      <path class="st3" d="M161.3,104.7h-18.5h-15.2c-0.4,0-0.7,0-1.1,0c-15.4,0.4-25.3,10.3-25.3,25.3c0,15.3,9.9,25.2,25.3,25.7 c0-0.3,0-0.7,0-1v-15.2c-7.9-0.4-9-4.9-9-9.4c0-4.5,1.1-8.7,9-9.1c0.4,0,0.7,0,1.1,0h15.2h18.6v-15.5 C161.3,105.2,161.3,105,161.3,104.7z"/>
      <path class="st2" d="M176.8,155.8h-15.5c-0.4,7.9-4.9,9-9.4,9c-4.5,0-8.7-1.1-9.1-9c0-0.4,0-0.7,0-1.1v-15.2V121h-15.2 c-0.4,0-0.7,0-1.1,0v18.5v15.2c0,0.4,0,0.7,0,1c0.4,15.4,10.3,25.3,25.3,25.3c15.3,0,25.2-9.9,25.7-25.3 C177.3,155.8,177,155.8,176.8,155.8z"/>
    </g>
  </g>
</svg>
