<?xml version="1.0" encoding="utf-8"?>
<svg xmlns="http://www.w3.org/2000/svg" viewBox="2.2807 1.8747 712.8156 140.378" width="712.816px" height="140.378px">
  <defs>
    <style type="text/css">
	.st0{fill:#FFFFFF;}
	.st1{fill:none;}
	.st2{fill:#00A8FF;}
	.st3{fill:#095EF1;}
</style>
  </defs>
  <g transform="matrix(1.3830339908599854, 0, 0, 1.3830339908599854, -137.682373046875, -108.07647705078125)" style="">
    <path d="M262.4,122.9c-10.8-2.3-20-4.3-20-11.9c0-6.1,5-10,12.7-10c10.2,0,18.4,5.5,23.9,15.9l15.6-9.6c-6.9-16.6-18.9-24-39.1-24 c-19.8,0-34.1,11.6-34.1,27.7c0,21.9,18.5,25.7,33.4,28.7c10.2,2.1,19.1,3.9,19.1,11.1c0,6.4-5.5,10.6-14.1,10.6 c-6.1,0-20.7-1.7-27-17.4l-16,10.1c6.2,16.4,21.4,25.4,42.6,25.4c17.9,0,36-9.1,36-29.3C295.4,130,277.1,126.1,262.4,122.9z"/>
    <path d="M344.8,106.6c-19.3,0-40,9.5-40,36.4c0,27,20.7,36.6,40,36.6c19.3,0,39.9-9.6,39.9-36.6 C384.7,116.1,364.1,106.6,344.8,106.6z M344.8,159.2c-10.7,0-16.8-5.9-16.8-16.2c0-10.1,6.1-16,16.8-16c10.5,0,16.5,5.8,16.5,16 C361.4,153.1,355.2,159.2,344.8,159.2z"/>
    <polygon points="410.7,108 387.3,108 407.8,178.2 450.3,178.2 470.7,108 447.9,108 429.5,173 &#9;"/>
    <path d="M477.8,119.8v58.4h23.3v-49.8H537V108h-47.2C481.9,108,477.8,112.1,477.8,119.8z"/>
    <path d="M599.3,119c-1.9-6.5-8-11.1-14.7-11.1h-19.4c-6.8,0-12.8,4.5-14.7,11l-17.3,59.2h23.1l4.4-15.5c1.5-6.4,6.7-10.1,14.3-10.1 c3.5,0,11.7,1,13.9,9.8l4.6,15.8h23.1L599.3,119z M574.8,145.9c-6.2,0-9.7-3.4-9.7-9.4c0-5.9,3.5-9.3,9.7-9.3 c6.1,0,9.6,3.4,9.6,9.3C584.4,142.4,580.8,145.9,574.8,145.9z"/>
    <g>
      <rect x="142.7" y="121" class="st1" width="18.6" height="18.6"/>
      <path class="st1" d="M117.5,130.1c0,4.5,1.1,9,9,9.4V121C118.6,121.4,117.5,125.6,117.5,130.1z"/>
      <path class="st1" d="M151.8,164.8c4.5,0,9-1.1,9.4-9h-18.5C143.1,163.7,147.3,164.8,151.8,164.8z"/>
      <path class="st1" d="M186.5,130.1c0-4.4-1.1-8.8-9-9.1v18.5C185.4,139.3,186.5,134.6,186.5,130.1z"/>
      <path class="st1" d="M151.8,95.8c-4.4,0-8.8,1.1-9.1,9l18.5,0C161,96.9,156.4,95.8,151.8,95.8z"/>
      <path class="st2" d="M177.5,104.8c-0.3-15.4-10.3-25.3-25.7-25.3c-15.2,0-25.1,9.9-25.4,25.3c0.4,0,0.7,0,1.1,0h15.2 c0.3-7.9,4.7-9,9.1-9c4.5,0,9.1,1.1,9.4,9c0,0.3,0,0.5,0,0.8l0,15.5v18.6l15.5,0c0.3,0,0.5,0,0.8,0V121v-15.5 C177.5,105.3,177.5,105,177.5,104.8z"/>
      <path class="st3" d="M177.5,104.8c0,0.2,0,0.5,0,0.7V121c7.9,0.3,9,4.7,9,9.1c0,4.5-1.1,9.1-9,9.4c-0.3,0-0.5,0-0.8,0h-15.5h-18.6 v15.2c0,0.4,0,0.7,0,1.1h18.5h15.5c0.2,0,0.5,0,0.7,0c15.4-0.3,25.3-10.3,25.3-25.7C202.8,114.9,192.9,105.1,177.5,104.8z"/>
      <path class="st3" d="M161.3,104.7h-18.5h-15.2c-0.4,0-0.7,0-1.1,0c-15.4,0.4-25.3,10.3-25.3,25.3c0,15.3,9.9,25.2,25.3,25.7 c0-0.3,0-0.7,0-1v-15.2c-7.9-0.4-9-4.9-9-9.4c0-4.5,1.1-8.7,9-9.1c0.4,0,0.7,0,1.1,0h15.2h18.6v-15.5 C161.3,105.2,161.3,105,161.3,104.7z"/>
      <path class="st2" d="M176.8,155.8h-15.5c-0.4,7.9-4.9,9-9.4,9c-4.5,0-8.7-1.1-9.1-9c0-0.4,0-0.7,0-1.1v-15.2V121h-15.2 c-0.4,0-0.7,0-1.1,0v18.5v15.2c0,0.4,0,0.7,0,1c0.4,15.4,10.3,25.3,25.3,25.3c15.3,0,25.2-9.9,25.7-25.3 C177.3,155.8,177,155.8,176.8,155.8z"/>
    </g>
  </g>
</svg>
